<svg xmlns="http://www.w3.org/2000/svg" xmlns:xlink="http://www.w3.org/1999/xlink" width="79.891" height="79.891" viewBox="0 0 79.891 79.891">
  <defs>
    <linearGradient id="linear-gradient" y1="0.5" x2="1" y2="0.5" gradientUnits="objectBoundingBox">
      <stop offset="0" stop-color="#2eb4f6"/>
      <stop offset="0.191" stop-color="#44a0eb"/>
      <stop offset="0.592" stop-color="#7f6fd2"/>
      <stop offset="1" stop-color="#c239b5"/>
    </linearGradient>
  </defs>
  <path id="path956" d="M398.817,1035.575l-10.569,6.1,10.7,6.176,10.492-6.057v-.089Zm-10.618,7.939v10.452l9.94,5.739v-10.452Zm21.237.145-9.686,5.593v10.305l9.686-5.592Zm-10.619-35.769a39.814,39.814,0,0,0-21.587,73.353V1069.1a30.258,30.258,0,0,1,3.754-45.779v60.1a39.95,39.95,0,0,0,9.387,3.351v-28.4l-4.9-2.832V1040.13l4.9-2.831v-18.575a30.3,30.3,0,0,1,3.753-.837v17.245l4.692-2.709,4.693,2.709v-26.959a39.969,39.969,0,0,0-4.692-.281Zm8.447.907v28.5l4.9,2.83v15.414l-4.9,2.831v18.574a30.34,30.34,0,0,1-3.755.837v-17.244l-4.693,2.71-4.692-2.709v26.9A39.908,39.908,0,0,0,420.4,1014.23v12.3a30.3,30.3,0,0,1-3.754,45.824V1012.1a39.957,39.957,0,0,0-9.385-3.3Z" transform="translate(-358.872 -1007.891)" fill="url(#linear-gradient)"/>
</svg>
